<svg width="120" height="120" viewBox="0 0 120 120" fill="none" xmlns="http://www.w3.org/2000/svg">
<path d="M105 3.75C111.203 3.75 116.25 8.7975 116.25 15V105C116.25 111.203 111.203 116.25 105 116.25H15C8.7975 116.25 3.75 111.203 3.75 105V15C3.75 8.7975 8.7975 3.75 15 3.75H105ZM105 0H15C6.75 0 0 6.75 0 15V105C0 113.25 6.75 120 15 120H105C113.25 120 120 113.25 120 105V15C120 6.75 113.25 0 105 0Z" fill="black"/>
<path d="M50.9888 94.7287H65.34V59.9962H74.9137L76.1813 48.03H65.34L65.355 42.0375C65.355 38.9175 65.6513 37.245 70.1288 37.245H76.1138V25.2712H66.5363C55.035 25.2712 50.9888 31.08 50.9888 40.8412V48.0262H43.8188V59.9962H50.9888V94.7287Z" fill="black"/>
</svg>
