<svg width="120" height="120" viewBox="0 0 120 120" fill="none" xmlns="http://www.w3.org/2000/svg">
<path d="M88.8 120H31.2C22.9252 120 14.9894 116.713 9.13827 110.862C3.28713 105.011 0 97.0748 0 88.8V31.2C0 22.9252 3.28713 14.9894 9.13827 9.13827C14.9894 3.28713 22.9252 0 31.2 0H88.8C97.0748 0 105.011 3.28713 110.862 9.13827C116.713 14.9894 120 22.9252 120 31.2V88.8C120 97.0748 116.713 105.011 110.862 110.862C105.011 116.713 97.0748 120 88.8 120ZM31.2 4.8C24.1983 4.8 17.4833 7.58142 12.5324 12.5324C7.58142 17.4833 4.8 24.1983 4.8 31.2V88.8C4.8 95.8017 7.58142 102.517 12.5324 107.468C17.4833 112.419 24.1983 115.2 31.2 115.2H88.8C95.8017 115.2 102.517 112.419 107.468 107.468C112.419 102.517 115.2 95.8017 115.2 88.8V31.2C115.2 24.1983 112.419 17.4833 107.468 12.5324C102.517 7.58142 95.8017 4.8 88.8 4.8H31.2Z" fill="black"/>
<path d="M59 83C54.0555 83 49.222 81.5338 45.1108 78.7867C40.9995 76.0397 37.7952 72.1352 35.903 67.5671C34.0108 62.9989 33.5157 57.9723 34.4804 53.1227C35.445 48.2732 37.826 43.8187 41.3223 40.3223C44.8187 36.826 49.2732 34.445 54.1227 33.4804C58.9723 32.5157 63.9989 33.0108 68.5671 34.903C73.1352 36.7952 77.0397 39.9995 79.7867 44.1108C82.5338 48.222 84 53.0555 84 58C83.9943 64.6287 81.3586 70.9842 76.6714 75.6714C71.9842 80.3586 65.6287 82.9943 59 83ZM59 37.3059C54.902 37.3059 50.896 38.5214 47.4889 40.7986C44.0818 43.0758 41.4266 46.3124 39.8593 50.0989C38.2921 53.8854 37.8831 58.0517 38.6841 62.0707C39.4852 66.0897 41.4603 69.7808 44.3595 72.6771C47.2588 75.5733 50.9519 77.5446 54.9718 78.3415C58.9916 79.1384 63.1575 78.7251 66.9423 77.1539C70.7272 75.5827 73.9611 72.9242 76.2347 69.5148C78.5084 66.1053 79.7198 62.0981 79.7155 58C79.7098 52.5077 77.5255 47.2419 73.6418 43.3582C69.7581 39.4745 64.4924 37.2902 59 37.2845V37.3059Z" fill="black"/>
<path d="M91.5 36C90.0166 36 88.5666 35.5601 87.3332 34.736C86.0999 33.9119 85.1386 32.7406 84.5709 31.3701C84.0032 29.9997 83.8547 28.4917 84.1441 27.0368C84.4335 25.582 85.1478 24.2456 86.1967 23.1967C87.2456 22.1478 88.582 21.4335 90.0368 21.1441C91.4917 20.8547 92.9997 21.0032 94.3701 21.5709C95.7406 22.1386 96.9119 23.0999 97.736 24.3332C98.5601 25.5666 99 27.0166 99 28.5C99 30.4891 98.2098 32.3968 96.8033 33.8033C95.3968 35.2098 93.4891 36 91.5 36ZM91.5 25.2857C90.8643 25.2857 90.2428 25.4742 89.7142 25.8274C89.1857 26.1806 88.7737 26.6826 88.5304 27.27C88.2871 27.8573 88.2235 28.5036 88.3475 29.1271C88.4715 29.7506 88.7776 30.3233 89.2272 30.7728C89.6767 31.2224 90.2494 31.5285 90.8729 31.6525C91.4964 31.7766 92.1427 31.7129 92.7301 31.4696C93.3174 31.2263 93.8194 30.8144 94.1726 30.2858C94.5258 29.7572 94.7143 29.1357 94.7143 28.5C94.7143 27.6475 94.3756 26.83 93.7728 26.2272C93.17 25.6244 92.3525 25.2857 91.5 25.2857Z" fill="black"/>
</svg>
