<svg width="120" height="120" viewBox="0 0 120 120" fill="none" xmlns="http://www.w3.org/2000/svg">
<path d="M105 3.75C111.203 3.75 116.25 8.7975 116.25 15V105C116.25 111.203 111.203 116.25 105 116.25H15C8.7975 116.25 3.75 111.203 3.75 105V15C3.75 8.7975 8.7975 3.75 15 3.75H105ZM105 0H15C6.75 0 0 6.75 0 15V105C0 113.25 6.75 120 15 120H105C113.25 120 120 113.25 120 105V15C120 6.75 113.25 0 105 0Z" fill="black"/>
<path d="M68.73 32.1001C62.4938 34.3688 58.5525 40.2226 59.0025 46.6276L59.1525 49.0988L56.6588 48.7951C47.58 47.6363 39.645 43.7026 32.91 37.0913L29.6138 33.8138L28.7663 36.2363C26.97 41.6326 28.1175 47.3363 31.86 51.1688C33.855 53.2876 33.405 53.5913 29.9663 52.3276C28.77 51.9263 27.72 51.6226 27.6225 51.7726C27.2738 52.1288 28.47 56.7151 29.4188 58.5338C30.7163 61.0576 33.36 63.5251 36.255 64.9913L38.7 66.1501L35.8088 66.1988C33.015 66.1988 32.9175 66.2476 33.2175 67.3126C34.215 70.5901 38.1563 74.0738 42.5475 75.5851L45.6413 76.6426L42.9488 78.2588C38.9588 80.5838 34.2675 81.8926 29.5763 81.9901C27.33 82.0388 25.485 82.2413 25.485 82.3951C25.485 82.8976 31.575 85.7213 35.115 86.8351C45.7425 90.1126 58.365 88.6988 67.845 83.1001C74.58 79.1138 81.315 71.1938 84.4613 63.5251C86.16 59.4413 87.855 51.9751 87.855 48.3976C87.855 46.0763 88.005 45.7726 90.7988 43.0013C92.445 41.3888 93.99 39.6226 94.29 39.1163C94.7888 38.1563 94.7363 38.1563 92.1938 39.0151C87.9525 40.5301 87.3525 40.3276 89.4525 38.0588C90.9975 36.4463 92.8463 33.5176 92.8463 32.6626C92.8463 32.5126 92.1 32.7638 91.2488 33.2176C90.3525 33.7238 88.3575 34.4813 86.8575 34.9313L84.15 35.7863L81.705 34.1213C80.3588 33.2138 78.465 32.2051 77.4638 31.9013C74.9175 31.1926 71.025 31.2938 68.73 32.1001Z" fill="black"/>
</svg>
